<?xml version="1.0" encoding="UTF-8"?><svg id="Layer_2" xmlns="http://www.w3.org/2000/svg" viewBox="0 0 380.8 135.21"><defs><style>.cls-1{fill:#fcf4f7;}.cls-2{fill:#8d8d8e;}.cls-3{fill:#bdbbbb;}</style></defs><g id="Layer_1-2"><g><rect class="cls-2" x="3" y="3" width="374.8" height="129.21" rx="59.81" ry="59.81"/><path class="cls-3" d="M318,135.21H62.81C28.17,135.21,0,107.04,0,72.41v-9.6C0,28.17,28.17,0,62.81,0h255.19c34.63,0,62.81,28.17,62.81,62.81v9.6c0,34.63-28.17,62.81-62.81,62.81ZM62.81,6C31.48,6,6,31.48,6,62.81v9.6c0,31.32,25.48,56.81,56.81,56.81h255.19c31.32,0,56.81-25.48,56.81-56.81v-9.6c0-31.32-25.48-56.81-56.81-56.81H62.81Z"/></g><g><circle class="cls-1" cx="74.65" cy="67.61" r="44.41"/><path class="cls-3" d="M74.65,115.39c-26.35,0-47.79-21.44-47.79-47.79S48.3,19.82,74.65,19.82s47.79,21.44,47.79,47.79-21.44,47.79-47.79,47.79Zm0-88.81c-22.62,0-41.02,18.4-41.02,41.02s18.4,41.02,41.02,41.02,41.02-18.4,41.02-41.02-18.4-41.02-41.02-41.02Z"/></g><g><path class="cls-1" d="M237.69,42.23c5.07,0,9.43,1.03,13.06,3.09s6.39,4.98,8.26,8.78,2.8,8.25,2.8,13.36c0,3.78-.51,7.22-1.54,10.31-1.02,3.09-2.56,5.77-4.6,8.04-2.05,2.27-4.56,4-7.54,5.21-2.98,1.2-6.4,1.8-10.24,1.8s-7.25-.62-10.28-1.85c-3.03-1.23-5.55-2.98-7.57-5.22-2.02-2.25-3.55-4.95-4.59-8.11-1.03-3.16-1.55-6.57-1.55-10.24s.54-7.21,1.62-10.34c1.08-3.14,2.64-5.81,4.69-8.01,2.05-2.2,4.54-3.89,7.47-5.06s6.27-1.75,10.01-1.75Zm14.08,25.16c0-3.58-.58-6.68-1.74-9.31s-2.81-4.61-4.96-5.96c-2.15-1.35-4.61-2.02-7.39-2.02-1.98,0-3.81,.37-5.49,1.12s-3.13,1.83-4.34,3.25c-1.21,1.42-2.17,3.24-2.87,5.46-.7,2.21-1.05,4.7-1.05,7.46s.35,5.29,1.05,7.54c.7,2.25,1.69,4.11,2.97,5.59,1.28,1.48,2.75,2.59,4.4,3.32,1.66,.73,3.48,1.1,5.46,1.1,2.54,0,4.87-.63,6.99-1.9,2.12-1.27,3.81-3.23,5.07-5.87,1.26-2.65,1.89-5.91,1.89-9.78Z"/><path class="cls-1" d="M299.52,50.71h-19.52v12.51h16.32c1.51,0,2.64,.34,3.39,1.02,.75,.68,1.12,1.58,1.12,2.72s-.38,2.04-1.13,2.7c-.76,.67-1.88,1-3.37,1h-16.32v16.12c0,2.05-.46,3.56-1.38,4.55-.92,.99-2.11,1.48-3.55,1.48s-2.66-.5-3.59-1.5c-.92-1-1.38-2.51-1.38-4.54V49.14c0-1.42,.21-2.59,.63-3.49,.42-.9,1.08-1.56,1.99-1.97,.9-.41,2.05-.62,3.45-.62h23.36c1.58,0,2.75,.35,3.52,1.05,.77,.7,1.15,1.62,1.15,2.75s-.38,2.08-1.15,2.79-1.94,1.05-3.52,1.05Z"/><path class="cls-1" d="M340.8,50.71h-19.52v12.51h16.32c1.51,0,2.64,.34,3.39,1.02,.75,.68,1.12,1.58,1.12,2.72s-.38,2.04-1.13,2.7c-.76,.67-1.88,1-3.37,1h-16.32v16.12c0,2.05-.46,3.56-1.38,4.55-.92,.99-2.11,1.48-3.55,1.48s-2.66-.5-3.59-1.5c-.92-1-1.38-2.51-1.38-4.54V49.14c0-1.42,.21-2.59,.63-3.49,.42-.9,1.08-1.56,1.99-1.97,.9-.41,2.05-.62,3.45-.62h23.36c1.58,0,2.75,.35,3.52,1.05,.77,.7,1.15,1.62,1.15,2.75s-.38,2.08-1.15,2.79-1.94,1.05-3.52,1.05Z"/></g></g></svg>