<?xml version="1.0" encoding="UTF-8"?><svg id="Layer_2" xmlns="http://www.w3.org/2000/svg" viewBox="0 0 380.8 135.21"><defs><style>.cls-1{fill:#fcf4f7;}.cls-2{fill:#8d8d8e;}.cls-3{fill:#5488cf;}</style></defs><g id="Layer_1-2"><g><rect class="cls-3" x="3" y="3" width="374.8" height="129.21" rx="59.81" ry="59.81"/><path class="cls-2" d="M318,135.21H62.81C28.17,135.21,0,107.04,0,72.41v-9.6C0,28.17,28.17,0,62.81,0h255.19c34.63,0,62.81,28.17,62.81,62.81v9.6c0,34.63-28.17,62.81-62.81,62.81ZM62.81,6C31.48,6,6,31.48,6,62.81v9.6c0,31.32,25.48,56.81,56.81,56.81h255.19c31.32,0,56.81-25.48,56.81-56.81v-9.6c0-31.32-25.48-56.81-56.81-56.81H62.81Z"/></g><g><circle class="cls-1" cx="307.59" cy="67.61" r="44.41"/><path class="cls-2" d="M307.59,115.39c-26.35,0-47.79-21.44-47.79-47.79s21.44-47.79,47.79-47.79,47.79,21.44,47.79,47.79-21.44,47.79-47.79,47.79Zm0-88.81c-22.62,0-41.02,18.4-41.02,41.02s18.4,41.02,41.02,41.02,41.02-18.4,41.02-41.02-18.4-41.02-41.02-41.02Z"/></g><g><path class="cls-1" d="M65.7,42.24c5.09,0,9.45,1.03,13.1,3.1,3.65,2.06,6.41,5,8.28,8.8,1.87,3.8,2.81,8.27,2.81,13.4,0,3.79-.51,7.24-1.54,10.34-1.03,3.1-2.57,5.79-4.62,8.07s-4.57,4.02-7.56,5.22c-2.99,1.21-6.41,1.81-10.27,1.81s-7.27-.62-10.31-1.86c-3.03-1.24-5.57-2.98-7.6-5.24-2.03-2.25-3.56-4.96-4.6-8.13s-1.56-6.59-1.56-10.27,.54-7.23,1.62-10.38c1.08-3.15,2.65-5.82,4.7-8.03,2.05-2.21,4.55-3.9,7.5-5.07,2.94-1.17,6.29-1.76,10.04-1.76Zm14.12,25.23c0-3.59-.58-6.7-1.74-9.34-1.16-2.63-2.82-4.62-4.97-5.97-2.15-1.35-4.62-2.02-7.41-2.02-1.99,0-3.82,.37-5.51,1.12s-3.13,1.84-4.35,3.26c-1.22,1.43-2.18,3.25-2.88,5.47-.7,2.22-1.05,4.71-1.05,7.48s.35,5.31,1.05,7.56c.7,2.25,1.7,4.12,2.98,5.61,1.28,1.48,2.75,2.59,4.42,3.33,1.66,.74,3.49,1.1,5.47,1.1,2.54,0,4.88-.64,7.01-1.91,2.13-1.27,3.83-3.23,5.09-5.89,1.26-2.65,1.89-5.92,1.89-9.81Z"/><path class="cls-1" d="M111.35,48.2l19.11,28.92v-29.18c0-1.9,.41-3.32,1.22-4.27,.81-.95,1.91-1.42,3.3-1.42s2.55,.47,3.38,1.42c.83,.95,1.24,2.37,1.24,4.27v38.59c0,4.31-1.79,6.46-5.35,6.46-.89,0-1.7-.13-2.41-.39-.71-.26-1.38-.66-2.01-1.22-.62-.56-1.2-1.21-1.74-1.96-.54-.75-1.07-1.51-1.61-2.29l-18.64-28.58v28.75c0,1.87-.44,3.29-1.31,4.25s-1.99,1.44-3.35,1.44-2.53-.49-3.38-1.46c-.85-.97-1.27-2.38-1.27-4.23V49.43c0-1.61,.18-2.87,.54-3.78,.42-1,1.13-1.82,2.11-2.46,.98-.64,2.04-.95,3.18-.95,.89,0,1.66,.15,2.29,.44,.64,.29,1.19,.68,1.67,1.17,.48,.49,.97,1.13,1.47,1.91,.5,.78,1.02,1.6,1.56,2.44Z"/></g></g></svg>